<svg xmlns="http://www.w3.org/2000/svg" xmlns:xlink="http://www.w3.org/1999/xlink" width="500" zoomAndPan="magnify" viewBox="0 0 375 374.999991" height="500" preserveAspectRatio="xMidYMid meet" version="1.0"><defs><g/><clipPath id="04c078359c"><path d="M 162.601562 231.761719 L 178.828125 231.761719 L 178.828125 247.875 L 162.601562 247.875 Z M 162.601562 231.761719 " clip-rule="nonzero"/></clipPath><clipPath id="1ddbbf18b8"><path d="M 107.339844 231.761719 L 123.566406 231.761719 L 123.566406 247.875 L 107.339844 247.875 Z M 107.339844 231.761719 " clip-rule="nonzero"/></clipPath><clipPath id="5633b85c3b"><path d="M 93.90625 208.125 L 187.355469 208.125 L 187.355469 240 L 93.90625 240 Z M 93.90625 208.125 " clip-rule="nonzero"/></clipPath></defs><rect x="-37.5" width="450" fill="#ffffff" y="-37.499999" height="449.999989" fill-opacity="1"/><rect x="-37.5" width="450" fill="#ffffff" y="-37.499999" height="449.999989" fill-opacity="1"/><rect x="-37.5" width="450" fill="#000000" y="-37.499999" height="449.999989" fill-opacity="1"/><g clip-path="url(#04c078359c)"><path fill="#ffffff" d="M 170.761719 231.898438 C 175.207031 231.898438 178.8125 235.46875 178.8125 239.886719 C 178.8125 244.304688 175.207031 247.875 170.761719 247.875 C 166.304688 247.875 162.707031 244.304688 162.707031 239.886719 C 162.714844 235.476562 166.316406 231.898438 170.761719 231.898438 Z M 170.761719 243.390625 C 172.703125 243.390625 174.289062 241.816406 174.289062 239.886719 C 174.289062 237.949219 172.703125 236.382812 170.761719 236.382812 C 168.804688 236.382812 167.230469 237.957031 167.230469 239.886719 C 167.230469 241.816406 168.816406 243.390625 170.761719 243.390625 " fill-opacity="1" fill-rule="evenodd"/></g><g clip-path="url(#1ddbbf18b8)"><path fill="#ffffff" d="M 115.410156 231.898438 C 119.859375 231.898438 123.464844 235.46875 123.464844 239.886719 C 123.464844 244.304688 119.859375 247.875 115.410156 247.875 C 110.964844 247.875 107.359375 244.304688 107.359375 239.886719 C 107.367188 235.476562 110.964844 231.898438 115.410156 231.898438 Z M 115.410156 243.390625 C 117.359375 243.390625 118.941406 241.816406 118.941406 239.886719 C 118.941406 237.949219 117.359375 236.382812 115.410156 236.382812 C 113.464844 236.382812 111.878906 237.957031 111.878906 239.886719 C 111.878906 241.816406 113.464844 243.390625 115.410156 243.390625 " fill-opacity="1" fill-rule="evenodd"/></g><g clip-path="url(#5633b85c3b)"><path fill="#ffffff" d="M 97.902344 210.257812 C 98.289062 208.996094 99.488281 208.128906 100.8125 208.128906 L 153.046875 208.128906 C 154.769531 208.128906 156.429688 208.714844 157.785156 209.777344 L 171.652344 220.667969 C 171.652344 220.667969 181.0625 222.320312 184.777344 226.535156 C 185 226.789062 185.203125 227.078125 185.390625 227.398438 L 94.007812 227.398438 C 94.054688 225.261719 94.125 223.488281 94.226562 222.742188 C 94.710938 219.058594 96.628906 214.410156 97.902344 210.257812 Z M 185.972656 228.605469 C 186.925781 231.015625 187.253906 234.296875 187.355469 236.703125 L 187.355469 236.917969 C 187.328125 237.679688 187.023438 238.402344 186.5 238.949219 C 185.917969 239.546875 185.109375 239.898438 184.273438 239.898438 L 180.761719 239.898438 L 180.761719 239.886719 C 180.761719 234.398438 176.296875 229.929688 170.761719 229.929688 C 165.222656 229.929688 160.757812 234.398438 160.757812 239.886719 L 160.757812 239.898438 L 125.429688 239.898438 L 125.429688 239.886719 C 125.429688 234.398438 120.925781 229.929688 115.394531 229.929688 C 109.859375 229.929688 105.34375 234.398438 105.34375 239.886719 L 105.34375 239.898438 L 96.988281 239.898438 C 96.160156 239.898438 95.371094 239.578125 94.800781 239 C 94.21875 238.417969 93.894531 237.640625 93.90625 236.828125 C 93.910156 234.5625 93.929688 231.394531 93.980469 228.605469 Z M 164.4375 221.023438 C 164.757812 221.023438 165.050781 220.820312 165.15625 220.535156 C 165.265625 220.234375 165.179688 219.894531 164.933594 219.683594 L 156.257812 212.371094 C 155.238281 211.511719 153.941406 211.011719 152.609375 211.011719 L 142.316406 211.011719 C 141.890625 211.011719 141.546875 211.359375 141.546875 211.773438 L 141.546875 220.265625 C 141.546875 220.6875 141.890625 221.023438 142.316406 221.023438 Z M 101.851562 211.023438 C 101.484375 211.023438 101.160156 211.300781 101.074219 211.65625 L 99.167969 220.097656 C 99.117188 220.320312 99.167969 220.5625 99.3125 220.746094 C 99.457031 220.917969 99.683594 221.023438 99.917969 221.023438 C 112.015625 221.023438 124.117188 221.023438 136.21875 221.023438 C 136.636719 221.023438 136.984375 220.6875 136.984375 220.265625 L 136.984375 211.773438 C 136.984375 211.359375 136.636719 211.011719 136.21875 211.011719 C 124.761719 211.011719 113.308594 211.023438 101.851562 211.023438 " fill-opacity="1" fill-rule="evenodd"/></g><g fill="#ffffff" fill-opacity="1"><g transform="translate(94.38948, 168.633006)"><g><path d="M 29.882812 -14.914062 L 29.882812 -23.277344 L 10.984375 -23.277344 L 10.984375 -29.253906 L 29.882812 -29.253906 L 29.882812 -37.964844 L 1.480469 -37.964844 L 1.480469 0 L 10.984375 0 L 10.984375 -14.914062 Z M 29.882812 -14.914062 "/></g></g></g><g fill="#ffffff" fill-opacity="1"><g transform="translate(125.749024, 168.633006)"><g><path d="M 29.996094 0 L 29.996094 -37.964844 L 1.480469 -37.964844 L 1.480469 0 Z M 20.492188 -8.652344 L 10.984375 -8.652344 L 10.984375 -29.253906 L 20.492188 -29.253906 Z M 20.492188 -8.652344 "/></g></g></g><g fill="#ffffff" fill-opacity="1"><g transform="translate(157.222395, 168.633006)"><g><path d="M 29.996094 0 L 24.417969 -10.585938 L 29.996094 -10.585938 L 29.996094 -37.964844 L 1.480469 -37.964844 L 1.480469 0 L 10.984375 0 L 10.984375 -10.585938 L 15.082031 -10.585938 L 20.492188 0 Z M 20.492188 -19.238281 L 10.984375 -19.238281 L 10.984375 -29.253906 L 20.492188 -29.253906 Z M 20.492188 -19.238281 "/></g></g></g><g fill="#ffffff" fill-opacity="1"><g transform="translate(188.69577, 168.633006)"><g><path d="M 29.371094 -29.253906 L 29.371094 -37.964844 L 0.855469 -37.964844 L 0.855469 -29.253906 L 10.414062 -29.253906 L 10.414062 0 L 19.921875 0 L 19.921875 -29.253906 Z M 29.371094 -29.253906 "/></g></g></g><g fill="#ffffff" fill-opacity="1"><g transform="translate(218.917029, 168.633006)"><g><path d="M 29.996094 0 L 29.996094 -37.964844 L 1.480469 -37.964844 L 1.480469 0 L 10.984375 0 L 10.984375 -10.585938 L 20.492188 -10.585938 L 20.492188 0 Z M 20.492188 -19.238281 L 10.984375 -19.238281 L 10.984375 -29.253906 L 20.492188 -29.253906 Z M 20.492188 -19.238281 "/></g></g></g><g fill="#ffffff" fill-opacity="1"><g transform="translate(250.390395, 168.633006)"><g><path d="M 29.371094 -29.253906 L 29.371094 -37.964844 L 0.855469 -37.964844 L 0.855469 -29.253906 L 10.414062 -29.253906 L 10.414062 0 L 19.921875 0 L 19.921875 -29.253906 Z M 29.371094 -29.253906 "/></g></g></g><g fill="#ffffff" fill-opacity="1"><g transform="translate(206.013088, 248.164599)"><g><path d="M 29.996094 0 L 29.996094 -37.964844 L 1.480469 -37.964844 L 1.480469 0 L 10.984375 0 L 10.984375 -10.585938 L 20.492188 -10.585938 L 20.492188 0 Z M 20.492188 -19.238281 L 10.984375 -19.238281 L 10.984375 -29.253906 L 20.492188 -29.253906 Z M 20.492188 -19.238281 "/></g></g></g><g fill="#ffffff" fill-opacity="1"><g transform="translate(237.486458, 248.164599)"><g><path d="M 29.996094 -10.585938 L 29.996094 -37.964844 L 1.480469 -37.964844 L 1.480469 0 L 10.984375 0 L 10.984375 -10.585938 Z M 20.492188 -19.238281 L 10.984375 -19.238281 L 10.984375 -29.253906 L 20.492188 -29.253906 Z M 20.492188 -19.238281 "/></g></g></g><g fill="#ffffff" fill-opacity="1"><g transform="translate(268.789089, 248.164599)"><g><path d="M 10.984375 0 L 10.984375 -37.964844 L 1.480469 -37.964844 L 1.480469 0 Z M 10.984375 0 "/></g></g></g></svg>