<svg xmlns="http://www.w3.org/2000/svg" xmlns:xlink="http://www.w3.org/1999/xlink" width="1366" zoomAndPan="magnify" viewBox="0 0 1024.5 576" height="768" preserveAspectRatio="xMidYMid meet" version="1.0"><defs><g/><clipPath id="4e3a8ad4db"><path d="M 0 0.140625 L 1024 0.140625 L 1024 575.859375 L 0 575.859375 Z M 0 0.140625 " clip-rule="nonzero"/></clipPath><clipPath id="99c44a1912"><path d="M 455.089844 403.574219 L 498.699219 403.574219 L 498.699219 447.058594 L 455.089844 447.058594 Z M 455.089844 403.574219 " clip-rule="nonzero"/></clipPath><clipPath id="f1191daab3"><path d="M 306.542969 403.574219 L 350 403.574219 L 350 447.058594 L 306.542969 447.058594 Z M 306.542969 403.574219 " clip-rule="nonzero"/></clipPath><clipPath id="c0db9a9a6a"><path d="M 270.429688 339.808594 L 521.621094 339.808594 L 521.621094 425.960938 L 270.429688 425.960938 Z M 270.429688 339.808594 " clip-rule="nonzero"/></clipPath></defs><g clip-path="url(#4e3a8ad4db)"><path fill="#ffffff" d="M 0 0.140625 L 1024.5 0.140625 L 1024.5 583.640625 L 0 583.640625 Z M 0 0.140625 " fill-opacity="1" fill-rule="nonzero"/><path fill="#ffffff" d="M 0 0.140625 L 1024.5 0.140625 L 1024.5 576.140625 L 0 576.140625 Z M 0 0.140625 " fill-opacity="1" fill-rule="nonzero"/><path fill="#223d38" d="M 0 0.140625 L 1024.5 0.140625 L 1024.5 576.140625 L 0 576.140625 Z M 0 0.140625 " fill-opacity="1" fill-rule="nonzero"/></g><g clip-path="url(#99c44a1912)"><path fill="#ffde59" d="M 477.015625 403.949219 C 488.964844 403.949219 498.660156 413.582031 498.660156 425.503906 C 498.660156 437.421875 488.964844 447.058594 477.015625 447.058594 C 465.039062 447.058594 455.367188 437.421875 455.367188 425.503906 C 455.390625 413.605469 465.066406 403.949219 477.015625 403.949219 Z M 477.015625 434.953125 C 482.242188 434.953125 486.503906 430.703125 486.503906 425.503906 C 486.503906 420.273438 482.242188 416.054688 477.015625 416.054688 C 471.761719 416.054688 467.523438 420.296875 467.523438 425.503906 C 467.523438 430.703125 471.789062 434.953125 477.015625 434.953125 " fill-opacity="1" fill-rule="evenodd"/></g><g clip-path="url(#f1191daab3)"><path fill="#ffde59" d="M 328.238281 403.949219 C 340.195312 403.949219 349.890625 413.582031 349.890625 425.503906 C 349.890625 437.421875 340.195312 447.058594 328.238281 447.058594 C 316.289062 447.058594 306.589844 437.421875 306.589844 425.503906 C 306.617188 413.605469 316.289062 403.949219 328.238281 403.949219 Z M 328.238281 434.953125 C 333.472656 434.953125 337.730469 430.703125 337.730469 425.503906 C 337.730469 420.273438 333.472656 416.054688 328.238281 416.054688 C 323.007812 416.054688 318.746094 420.296875 318.746094 425.503906 C 318.746094 430.703125 323.007812 434.953125 328.238281 434.953125 " fill-opacity="1" fill-rule="evenodd"/></g><g clip-path="url(#c0db9a9a6a)"><path fill="#ffde59" d="M 281.171875 345.5625 C 282.21875 342.152344 285.4375 339.8125 288.992188 339.8125 L 429.402344 339.8125 C 434.027344 339.8125 438.496094 341.398438 442.132812 344.261719 L 479.417969 373.648438 C 479.417969 373.648438 504.703125 378.101562 514.691406 389.476562 C 515.289062 390.164062 515.839844 390.945312 516.34375 391.804688 L 270.703125 391.804688 C 270.835938 386.039062 271.023438 381.253906 271.296875 379.25 C 272.597656 369.304688 277.746094 356.757812 281.171875 345.5625 Z M 517.902344 395.0625 C 520.46875 401.566406 521.34375 410.425781 521.621094 416.910156 L 521.621094 417.496094 C 521.550781 419.546875 520.730469 421.5 519.316406 422.976562 C 517.753906 424.589844 515.582031 425.527344 513.335938 425.527344 L 503.894531 425.527344 L 503.894531 425.503906 C 503.894531 410.695312 491.894531 398.640625 477.015625 398.640625 C 462.132812 398.640625 450.132812 410.695312 450.132812 425.503906 L 450.132812 425.527344 L 355.171875 425.527344 L 355.171875 425.503906 C 355.171875 410.695312 343.0625 398.640625 328.1875 398.640625 C 313.308594 398.640625 301.171875 410.695312 301.171875 425.503906 L 301.171875 425.527344 L 278.714844 425.527344 C 276.496094 425.527344 274.375 424.667969 272.835938 423.109375 C 271.269531 421.542969 270.402344 419.4375 270.429688 417.253906 C 270.445312 411.136719 270.5 402.59375 270.636719 395.0625 Z M 460.019531 374.609375 C 460.882812 374.609375 461.664062 374.0625 461.953125 373.285156 C 462.242188 372.476562 462.007812 371.5625 461.351562 370.992188 L 438.03125 351.265625 C 435.289062 348.949219 431.804688 347.597656 428.222656 347.597656 L 400.5625 347.597656 C 399.40625 347.597656 398.492188 348.527344 398.492188 349.648438 L 398.492188 372.558594 C 398.492188 373.707031 399.40625 374.609375 400.5625 374.609375 Z M 291.789062 347.621094 C 290.800781 347.621094 289.933594 348.375 289.703125 349.335938 L 284.574219 372.113281 C 284.441406 372.710938 284.574219 373.363281 284.96875 373.855469 C 285.355469 374.324219 285.960938 374.609375 286.589844 374.609375 C 319.117188 374.609375 351.640625 374.609375 384.167969 374.609375 C 385.292969 374.609375 386.230469 373.707031 386.230469 372.558594 L 386.230469 349.648438 C 386.230469 348.527344 385.292969 347.597656 384.167969 347.597656 C 353.375 347.597656 322.582031 347.621094 291.789062 347.621094 " fill-opacity="1" fill-rule="evenodd"/></g><g fill="#ffde59" fill-opacity="1"><g transform="translate(271.663701, 238.384035)"><g><path d="M 77.210938 -38.53125 L 77.210938 -60.152344 L 28.382812 -60.152344 L 28.382812 -75.59375 L 77.210938 -75.59375 L 77.210938 -98.09375 L 3.824219 -98.09375 L 3.824219 0 L 28.382812 0 L 28.382812 -38.53125 Z M 77.210938 -38.53125 "/></g></g></g><g fill="#ffde59" fill-opacity="1"><g transform="translate(352.692954, 238.384035)"><g><path d="M 77.503906 0 L 77.503906 -98.09375 L 3.824219 -98.09375 L 3.824219 0 Z M 52.945312 -22.355469 L 28.382812 -22.355469 L 28.382812 -75.59375 L 52.945312 -75.59375 Z M 52.945312 -22.355469 "/></g></g></g><g fill="#ffde59" fill-opacity="1"><g transform="translate(434.016321, 238.384035)"><g><path d="M 77.503906 0 L 63.09375 -27.355469 L 77.503906 -27.355469 L 77.503906 -98.09375 L 3.824219 -98.09375 L 3.824219 0 L 28.382812 0 L 28.382812 -27.355469 L 38.972656 -27.355469 L 52.945312 0 Z M 52.945312 -49.707031 L 28.382812 -49.707031 L 28.382812 -75.59375 L 52.945312 -75.59375 Z M 52.945312 -49.707031 "/></g></g></g><g fill="#ffde59" fill-opacity="1"><g transform="translate(515.339698, 238.384035)"><g><path d="M 75.886719 -75.59375 L 75.886719 -98.09375 L 2.207031 -98.09375 L 2.207031 -75.59375 L 26.914062 -75.59375 L 26.914062 0 L 51.472656 0 L 51.472656 -75.59375 Z M 75.886719 -75.59375 "/></g></g></g><g fill="#ffde59" fill-opacity="1"><g transform="translate(593.427763, 238.384035)"><g><path d="M 77.503906 0 L 77.503906 -98.09375 L 3.824219 -98.09375 L 3.824219 0 L 28.382812 0 L 28.382812 -27.355469 L 52.945312 -27.355469 L 52.945312 0 Z M 52.945312 -49.707031 L 28.382812 -49.707031 L 28.382812 -75.59375 L 52.945312 -75.59375 Z M 52.945312 -49.707031 "/></g></g></g><g fill="#ffde59" fill-opacity="1"><g transform="translate(674.751118, 238.384035)"><g><path d="M 75.886719 -75.59375 L 75.886719 -98.09375 L 2.207031 -98.09375 L 2.207031 -75.59375 L 26.914062 -75.59375 L 26.914062 0 L 51.472656 0 L 51.472656 -75.59375 Z M 75.886719 -75.59375 "/></g></g></g><g fill="#ffde59" fill-opacity="1"><g transform="translate(560.085546, 443.884011)"><g><path d="M 77.503906 0 L 77.503906 -98.09375 L 3.824219 -98.09375 L 3.824219 0 L 28.382812 0 L 28.382812 -27.355469 L 52.945312 -27.355469 L 52.945312 0 Z M 52.945312 -49.707031 L 28.382812 -49.707031 L 28.382812 -75.59375 L 52.945312 -75.59375 Z M 52.945312 -49.707031 "/></g></g></g><g fill="#ffde59" fill-opacity="1"><g transform="translate(641.408912, 443.884011)"><g><path d="M 77.503906 -27.355469 L 77.503906 -98.09375 L 3.824219 -98.09375 L 3.824219 0 L 28.382812 0 L 28.382812 -27.355469 Z M 52.945312 -49.707031 L 28.382812 -49.707031 L 28.382812 -75.59375 L 52.945312 -75.59375 Z M 52.945312 -49.707031 "/></g></g></g><g fill="#ffde59" fill-opacity="1"><g transform="translate(722.291109, 443.884011)"><g><path d="M 28.382812 0 L 28.382812 -98.09375 L 3.824219 -98.09375 L 3.824219 0 Z M 28.382812 0 "/></g></g></g></svg>